<?xml version="1.0" encoding="UTF-8"?>
<svg xmlns="http://www.w3.org/2000/svg" xmlns:xlink="http://www.w3.org/1999/xlink" style="display: none;">
  <symbol id="svg-symbol-0" viewBox="0 0 272 68">
    <path d="M0 34.52V51.78H12.0181V34.52H0Z" fill="currentColor" data-frz-id="q6c6k3pd05s"></path><path d="M51.3865 34.52V51.78H62.8932V34.52H51.3865Z" fill="currentColor" data-frz-id="zmhcizqfo8r"></path><path d="M75.4837 34.52C75.7204 37.7518 76.5491 40.6285 77.9697 43.15C79.717 46.1332 82.1675 48.4559 85.3212 50.1179C88.4749 51.7374 92.1613 52.5471 96.3804 52.5471C100.642 52.5471 104.328 51.7374 107.44 50.1179C110.551 48.4985 112.958 46.1971 114.663 43.2139C116.093 40.6758 116.923 37.7778 117.154 34.52L105.33 34.52C105.049 36.5977 104.303 38.3237 103.093 39.698C101.558 41.4453 99.321 42.319 96.3804 42.319C93.3971 42.319 91.1171 41.4453 89.5403 39.698C88.3296 38.3237 87.5837 36.5977 87.3026 34.52L75.4837 34.52Z" fill="currentColor" data-frz-id="xwhc5l0roql"></path><path d="M124.518 34.52V51.78H136.28V34.52H124.518Z" fill="currentColor" data-frz-id="44ca1ptatde"></path><path d="M151.367 34.52V51.78H163.129V34.52H151.367Z" fill="currentColor" data-frz-id="e78relsdk5m"></path><path d="M178.216 34.52V51.78H189.978V34.52H178.216Z" fill="currentColor" data-frz-id="8xt695e2dmq"></path><path d="M199.02 34.52V67.1222H210.783V46.8577H211.039C212.147 48.6476 213.66 50.054 215.577 51.0768C217.538 52.057 219.882 52.5471 222.609 52.5471C226.317 52.5471 229.471 51.7161 232.07 50.054C234.67 48.3919 236.652 46.0693 238.015 43.0861C239.155 40.558 239.818 37.7026 240.006 34.52L228.186 34.52C227.926 36.6174 227.218 38.3434 226.061 39.698C224.612 41.4453 222.375 42.319 219.349 42.319C216.707 42.319 214.618 41.5945 213.084 40.1455C211.652 38.7531 210.888 36.8779 210.793 34.52L199.02 34.52Z" fill="currentColor" data-frz-id="5k9pfqtveed"></path><path d="M247.89 34.52V42.5747C247.89 45.6857 248.7 48.0084 250.319 49.5426C251.981 51.0342 254.304 51.78 257.287 51.78H268.858V42.5747H259.652V34.52H247.89Z" fill="currentColor" data-frz-id="ye33xic3q7d"></path><path clip-rule="evenodd" d="M15.853 34.52H3.83496V0H28.9579C34.7964 0 39.3565 1.4916 42.638 4.47481C45.9195 7.4154 47.5603 11.4853 47.5603 16.6846C47.5603 21.8413 45.9195 25.9113 42.638 28.8945C39.3565 31.8777 34.7964 33.3693 28.9579 33.3693H15.853V34.52ZM28.1908 22.8855H15.853V10.4838H28.1908C30.5773 10.4838 32.3886 11.0166 33.6245 12.082C34.903 13.1474 35.5422 14.6816 35.5422 16.6846C35.5422 18.645 34.903 20.1793 33.6245 21.2873C32.3886 22.3527 30.5773 22.8855 28.1908 22.8855Z" fill="currentColor" fill-rule="evenodd" data-frz-id="90agxua1gyu"></path><path d="M66.7281 34.52H55.2214V24.9311H49.4681V13.4244H61.2305V21.0955H63.9154C64.8956 18.3254 66.4937 16.2798 68.7098 14.9586C70.9259 13.5949 73.3977 12.913 76.1252 12.913H79.3855V23.1412H75.6138C72.4601 23.1412 70.1801 24.0148 68.7737 25.7621C67.41 27.5094 66.7281 29.7894 66.7281 32.6022V34.52Z" fill="currentColor" data-frz-id="9wsaihzxnen"></path><path d="M120.989 34.52C121.033 33.894 121.055 33.2547 121.055 32.6022C121.055 28.5109 120.203 24.9737 118.498 21.9905C116.793 19.0073 114.386 16.706 111.275 15.0865C108.206 13.467 104.541 12.6573 100.279 12.6573C96.0175 12.6573 92.3098 13.467 89.1561 15.0865C86.0025 16.706 83.552 19.0073 81.8046 21.9905C80.1 24.9737 79.2476 28.4896 79.2476 32.5383C79.2476 33.213 79.2713 33.8736 79.3186 34.52H91.1375C91.0525 33.8916 91.01 33.231 91.01 32.5383C91.01 29.5551 91.7984 27.2111 93.3753 25.5064C94.9521 23.7591 97.2321 22.8855 100.215 22.8855C103.156 22.8855 105.393 23.7591 106.928 25.5064C108.504 27.2111 109.293 29.5551 109.293 32.5383C109.293 33.231 109.25 33.8916 109.165 34.52H120.989Z" fill="currentColor" data-frz-id="6pax5hvcdye"></path><path d="M140.115 34.52H128.353V24.9311H122.599V13.4244H134.362V19.817H137.047C138.496 17.5583 140.307 15.811 142.48 14.5751C144.696 13.3392 147.445 12.7212 150.727 12.7212C153.838 12.7212 156.48 13.254 158.654 14.3194C160.87 15.3422 162.66 16.8551 164.023 18.8581H164.279C167.305 14.7669 171.652 12.7212 177.32 12.7212C182.391 12.7212 186.398 14.1915 189.338 17.1321C192.321 20.0727 193.813 24.0148 193.813 28.9584V34.52H182.051V31.2597C182.051 25.89 179.536 23.2051 174.507 23.2051C169.478 23.2051 166.964 25.89 166.964 31.2597V34.52H155.202V31.2597C155.202 25.89 152.645 23.2051 147.531 23.2051C145.059 23.2051 143.205 23.8657 141.969 25.1868C140.733 26.5079 140.115 28.5322 140.115 31.2597V34.52Z" fill="currentColor" data-frz-id="gdj7k79sr1e"></path><path d="M243.841 34.52C243.877 33.8934 243.896 33.2541 243.896 32.6022C243.896 28.6388 243.193 25.1655 241.786 22.1823C240.38 19.1991 238.313 16.8764 235.586 15.2144C232.858 13.5097 229.47 12.6573 225.421 12.6573C222.182 12.6573 219.391 13.2966 217.047 14.5751C214.746 15.811 212.913 17.5583 211.549 19.817H208.864V13.4244H197.102V24.9311H202.855V34.52H214.628C214.621 34.3519 214.618 34.1815 214.618 34.0086V31.1958C214.618 28.5962 215.385 26.5718 216.919 25.1229C218.453 23.6313 220.542 22.8855 223.184 22.8855C226.21 22.8855 228.447 23.7591 229.896 25.5064C231.388 27.2537 232.134 29.619 232.134 32.6022C232.134 33.2727 232.096 33.9119 232.021 34.52H243.841Z" fill="currentColor" data-frz-id="gehg5ya408e"></path><path d="M263.487 34.52H251.725V22.6298H245.332V13.4244H251.853V1.91777H263.359V13.4244H271.798V22.6298H263.487V34.52Z" fill="currentColor" data-frz-id="e2oh3urpirp"></path>
  </symbol>
  <symbol id="svg-symbol-1" viewBox="0 0 105 22">
    <path d="M11.0989 22C9.00214 22 7.16107 21.5653 5.57571 20.6959C4.00739 19.8095 2.78854 18.5651 1.91914 16.9627C1.0668 15.3603 0.640625 13.4766 0.640625 11.3116C0.640625 9.14668 1.0668 7.26299 1.91914 5.66058C2.78854 4.05818 4.00739 2.82228 5.57571 1.95289C7.16107 1.06645 9.00214 0.62323 11.0989 0.62323C12.7695 0.62323 14.2526 0.904503 15.5482 1.46705C16.8437 2.0296 17.9092 2.84785 18.7445 3.9218C19.5798 4.97871 20.1167 6.2487 20.3554 7.73178H16.3408C16.1192 6.55555 15.5482 5.65206 14.6276 5.02133C13.7071 4.37355 12.5309 4.04966 11.0989 4.04966C9.05328 4.04966 7.44235 4.69744 6.26611 5.993C5.08987 7.27152 4.50175 9.04439 4.50175 11.3116C4.50175 13.5789 5.08987 15.3603 6.26611 16.6558C7.44235 17.9343 9.05328 18.5736 11.0989 18.5736C12.5309 18.5736 13.7071 18.2582 14.6276 17.6275C15.5482 16.9797 16.1192 16.0677 16.3408 14.8915H20.3554C20.1167 16.3746 19.5798 17.6531 18.7445 18.727C17.9092 19.7839 16.8437 20.5937 15.5482 21.1562C14.2526 21.7188 12.7695 22 11.0989 22Z" fill="currentColor" data-frz-id="9ho2kf2d634"></path><path d="M22.8753 21.642V10.1098H20.9831V6.29984H24.8698V9.266H25.9437C26.3699 8.24319 27.0262 7.46756 27.9126 6.9391C28.7991 6.41065 29.8134 6.14642 30.9555 6.14642H32.234V9.41943H30.7765C29.3787 9.41943 28.3388 9.82003 27.6569 10.6212C26.9751 11.4224 26.6341 12.4879 26.6341 13.8175V21.642H22.8753Z" fill="currentColor" data-frz-id="wff63agena"></path><path d="M38.0513 21.9233C36.2614 21.9233 34.855 21.4886 33.8322 20.6192C32.8264 19.7498 32.3235 18.5992 32.3235 17.1672C32.3235 15.6671 32.8349 14.5079 33.8577 13.6897C34.8976 12.8714 36.3892 12.4623 38.3326 12.4623H43.0119V11.8486C43.0119 9.97345 41.9209 9.03587 39.7389 9.03587C37.8808 9.03587 36.7643 9.7007 36.3892 11.0304H32.5792C32.9031 9.39386 33.6788 8.14943 34.9061 7.29709C36.1335 6.4277 37.7444 5.993 39.7389 5.993C41.9891 5.993 43.7024 6.50441 44.8786 7.52722C46.0548 8.53299 46.6429 10.0075 46.6429 11.9509V17.8321H48.4584V21.642H44.5462V19.1873H43.4722C42.9438 20.0567 42.2278 20.73 41.3243 21.2074C40.4379 21.6847 39.3469 21.9233 38.0513 21.9233ZM38.6138 18.9827C39.4491 18.9827 40.1992 18.8293 40.864 18.5225C41.5289 18.1986 42.0488 17.7724 42.4238 17.2439C42.8159 16.6985 43.0119 16.0933 43.0119 15.4285V15.0705H38.5371C36.8154 15.0705 35.9545 15.7097 35.9545 16.9882C35.9545 17.619 36.1847 18.1133 36.6449 18.4713C37.1222 18.8123 37.7785 18.9827 38.6138 18.9827Z" fill="currentColor" data-frz-id="yf339qevdqh"></path><path d="M51.7259 21.642V9.266H48.862V6.29984H51.7514V3.30811C51.7514 2.23416 52.0327 1.44148 52.5952 0.930073C53.1748 0.418667 53.976 0.162964 54.9989 0.162964H59.3458V3.12912H55.4847V6.29984H59.039V9.266H55.5358V21.642H51.7259Z" fill="currentColor" data-frz-id="8u70y6t0q2"></path><path d="M64.9098 21.642C63.904 21.642 63.1199 21.3863 62.5573 20.8749C62.0118 20.3635 61.7391 19.5879 61.7391 18.548V9.266H59.0286V6.29984H61.7646V1.69718H65.4979V6.29984H69.2056V9.266H65.549V18.6503H69.5636V21.642H64.9098Z" fill="currentColor" data-frz-id="04tj7d5qtl8f"></path><path d="M78.2707 21.9489C76.6342 21.9489 75.2023 21.625 73.9749 20.9772C72.7645 20.3124 71.827 19.3833 71.1621 18.1901C70.5144 16.9797 70.1905 15.5563 70.1905 13.9198C70.1905 12.2833 70.5144 10.8769 71.1621 9.7007C71.8099 8.50742 72.7305 7.59541 73.9237 6.96467C75.117 6.31689 76.5149 5.993 78.1173 5.993C79.6856 5.993 81.0323 6.29984 82.1574 6.91353C83.2825 7.51017 84.1519 8.37957 84.7656 9.52171C85.3793 10.6468 85.6861 11.985 85.6861 13.5363V14.8659H73.847C74.0004 16.1615 74.4522 17.1587 75.2023 17.8576C75.9694 18.5395 76.9837 18.8805 78.2451 18.8805C79.1827 18.8805 79.9413 18.71 80.5209 18.369C81.1175 18.0111 81.5352 17.4826 81.7738 16.7837H85.6094C85.2514 18.4031 84.4246 19.6731 83.1291 20.5937C81.8506 21.4971 80.2311 21.9489 78.2707 21.9489ZM73.9493 12.2833H82.0295C81.8932 11.2264 81.484 10.4252 80.8022 9.87969C80.1373 9.31714 79.2424 9.03587 78.1173 9.03587C77.0092 9.03587 76.0972 9.31714 75.3812 9.87969C74.6653 10.4422 74.188 11.2434 73.9493 12.2833Z" fill="currentColor" data-frz-id="qskin14q0n"></path><path d="M93.9885 21.9489C92.4202 21.9489 91.0905 21.625 89.9995 20.9772C88.9085 20.3124 88.0732 19.3833 87.4936 18.1901C86.9311 16.9797 86.6498 15.5734 86.6498 13.9709C86.6498 12.3515 86.9225 10.9451 87.468 9.75184C88.0306 8.55856 88.8318 7.63803 89.8717 6.99024C90.9286 6.32542 92.19 5.993 93.6561 5.993C94.8153 5.993 95.8125 6.21461 96.6478 6.65783C97.4831 7.084 98.1224 7.70621 98.5656 8.52446H98.6679V0.162964H102.478V17.8321H104.37V21.642H100.483V19.1873H99.4094C98.8639 20.0737 98.1394 20.7556 97.2359 21.2329C96.3325 21.7102 95.25 21.9489 93.9885 21.9489ZM94.6533 18.6503C95.8807 18.6503 96.8524 18.3094 97.5683 17.6275C98.3014 16.9286 98.6679 15.991 98.6679 14.8148V13.1271C98.6679 11.9509 98.3014 11.0218 97.5683 10.34C96.8524 9.64104 95.8807 9.29157 94.6533 9.29157C93.2896 9.29157 92.2497 9.70922 91.5337 10.5445C90.8178 11.3628 90.4598 12.5049 90.4598 13.9709C90.4598 15.437 90.8178 16.5876 91.5337 17.4229C92.2497 18.2412 93.2896 18.6503 94.6533 18.6503Z" fill="currentColor" data-frz-id="1r4xmma6m8k"></path>
  </symbol>
  <symbol id="svg-symbol-10" viewBox="0 0 272 68">
    <path d="M0 34.52V51.78H12.0181V34.52H0Z" fill="white" data-frz-id="to65gw8y90a" style="mix-blend-mode: difference;"></path><path d="M51.3865 34.52V51.78H62.8932V34.52H51.3865Z" fill="white" data-frz-id="p375q7jajoo" style="mix-blend-mode: difference;"></path><path d="M75.4837 34.52C75.7204 37.7518 76.5491 40.6285 77.9697 43.15C79.717 46.1332 82.1675 48.4559 85.3212 50.1179C88.4749 51.7374 92.1613 52.5471 96.3804 52.5471C100.642 52.5471 104.328 51.7374 107.44 50.1179C110.551 48.4985 112.958 46.1971 114.663 43.2139C116.093 40.6758 116.923 37.7778 117.154 34.52L105.33 34.52C105.049 36.5977 104.303 38.3237 103.093 39.698C101.558 41.4453 99.321 42.319 96.3804 42.319C93.3971 42.319 91.1171 41.4453 89.5403 39.698C88.3296 38.3237 87.5837 36.5977 87.3026 34.52L75.4837 34.52Z" fill="white" data-frz-id="fpmdlhqc7sc" style="mix-blend-mode: difference;"></path><path d="M124.518 34.52V51.78H136.28V34.52H124.518Z" fill="white" data-frz-id="1asm61etcwu" style="mix-blend-mode: difference;"></path><path d="M151.367 34.52V51.78H163.129V34.52H151.367Z" fill="white" data-frz-id="30evymeqrpn" style="mix-blend-mode: difference;"></path><path d="M178.216 34.52V51.78H189.978V34.52H178.216Z" fill="white" data-frz-id="qrkk07bh2j" style="mix-blend-mode: difference;"></path><path d="M199.02 34.52V67.1222H210.783V46.8577H211.039C212.147 48.6476 213.66 50.054 215.577 51.0768C217.538 52.057 219.882 52.5471 222.609 52.5471C226.317 52.5471 229.471 51.7161 232.07 50.054C234.67 48.3919 236.652 46.0693 238.015 43.0861C239.155 40.558 239.818 37.7026 240.006 34.52L228.186 34.52C227.926 36.6174 227.218 38.3434 226.061 39.698C224.612 41.4453 222.375 42.319 219.349 42.319C216.707 42.319 214.618 41.5945 213.084 40.1455C211.652 38.7531 210.888 36.8779 210.793 34.52L199.02 34.52Z" fill="white" data-frz-id="zyuzsumx2a" style="mix-blend-mode: difference;"></path><path d="M247.89 34.52V42.5747C247.89 45.6857 248.7 48.0084 250.319 49.5426C251.981 51.0342 254.304 51.78 257.287 51.78H268.858V42.5747H259.652V34.52H247.89Z" fill="white" data-frz-id="kegl5800ivd" style="mix-blend-mode: difference;"></path><path clip-rule="evenodd" d="M15.853 34.52H3.83496V0H28.9579C34.7964 0 39.3565 1.4916 42.638 4.47481C45.9195 7.4154 47.5603 11.4853 47.5603 16.6846C47.5603 21.8413 45.9195 25.9113 42.638 28.8945C39.3565 31.8777 34.7964 33.3693 28.9579 33.3693H15.853V34.52ZM28.1908 22.8855H15.853V10.4838H28.1908C30.5773 10.4838 32.3886 11.0166 33.6245 12.082C34.903 13.1474 35.5422 14.6816 35.5422 16.6846C35.5422 18.645 34.903 20.1793 33.6245 21.2873C32.3886 22.3527 30.5773 22.8855 28.1908 22.8855Z" fill="white" fill-rule="evenodd" data-frz-id="rvwcyj6ni3" style="mix-blend-mode: difference;"></path><path d="M66.7281 34.52H55.2214V24.9311H49.4681V13.4244H61.2305V21.0955H63.9154C64.8956 18.3254 66.4937 16.2798 68.7098 14.9586C70.9259 13.5949 73.3977 12.913 76.1252 12.913H79.3855V23.1412H75.6138C72.4601 23.1412 70.1801 24.0148 68.7737 25.7621C67.41 27.5094 66.7281 29.7894 66.7281 32.6022V34.52Z" fill="white" data-frz-id="elgjx11qru" style="mix-blend-mode: difference;"></path><path d="M120.989 34.52C121.033 33.894 121.055 33.2547 121.055 32.6022C121.055 28.5109 120.203 24.9737 118.498 21.9905C116.793 19.0073 114.386 16.706 111.275 15.0865C108.206 13.467 104.541 12.6573 100.279 12.6573C96.0175 12.6573 92.3098 13.467 89.1561 15.0865C86.0025 16.706 83.552 19.0073 81.8046 21.9905C80.1 24.9737 79.2476 28.4896 79.2476 32.5383C79.2476 33.213 79.2713 33.8736 79.3186 34.52H91.1375C91.0525 33.8916 91.01 33.231 91.01 32.5383C91.01 29.5551 91.7984 27.2111 93.3753 25.5064C94.9521 23.7591 97.2321 22.8855 100.215 22.8855C103.156 22.8855 105.393 23.7591 106.928 25.5064C108.504 27.2111 109.293 29.5551 109.293 32.5383C109.293 33.231 109.25 33.8916 109.165 34.52H120.989Z" fill="white" data-frz-id="diz0z1qjjke" style="mix-blend-mode: difference;"></path><path d="M140.115 34.52H128.353V24.9311H122.599V13.4244H134.362V19.817H137.047C138.496 17.5583 140.307 15.811 142.48 14.5751C144.696 13.3392 147.445 12.7212 150.727 12.7212C153.838 12.7212 156.48 13.254 158.654 14.3194C160.87 15.3422 162.66 16.8551 164.023 18.8581H164.279C167.305 14.7669 171.652 12.7212 177.32 12.7212C182.391 12.7212 186.398 14.1915 189.338 17.1321C192.321 20.0727 193.813 24.0148 193.813 28.9584V34.52H182.051V31.2597C182.051 25.89 179.536 23.2051 174.507 23.2051C169.478 23.2051 166.964 25.89 166.964 31.2597V34.52H155.202V31.2597C155.202 25.89 152.645 23.2051 147.531 23.2051C145.059 23.2051 143.205 23.8657 141.969 25.1868C140.733 26.5079 140.115 28.5322 140.115 31.2597V34.52Z" fill="white" data-frz-id="dxbg9pocj2" style="mix-blend-mode: difference;"></path><path d="M243.841 34.52C243.877 33.8934 243.896 33.2541 243.896 32.6022C243.896 28.6388 243.193 25.1655 241.786 22.1823C240.38 19.1991 238.313 16.8764 235.586 15.2144C232.858 13.5097 229.47 12.6573 225.421 12.6573C222.182 12.6573 219.391 13.2966 217.047 14.5751C214.746 15.811 212.913 17.5583 211.549 19.817H208.864V13.4244H197.102V24.9311H202.855V34.52H214.628C214.621 34.3519 214.618 34.1815 214.618 34.0086V31.1958C214.618 28.5962 215.385 26.5718 216.919 25.1229C218.453 23.6313 220.542 22.8855 223.184 22.8855C226.21 22.8855 228.447 23.7591 229.896 25.5064C231.388 27.2537 232.134 29.619 232.134 32.6022C232.134 33.2727 232.096 33.9119 232.021 34.52H243.841Z" fill="white" data-frz-id="nptgs935w5q" style="mix-blend-mode: difference;"></path><path d="M263.487 34.52H251.725V22.6298H245.332V13.4244H251.853V1.91777H263.359V13.4244H271.798V22.6298H263.487V34.52Z" fill="white" data-frz-id="5wadvuux0cu" style="mix-blend-mode: difference;"></path>
  </symbol>
  <symbol id="svg-symbol-11" viewBox="0 0 105 22">
    <path d="M11.0989 22C9.00214 22 7.16107 21.5653 5.57571 20.6959C4.00739 19.8095 2.78854 18.5651 1.91914 16.9627C1.0668 15.3603 0.640625 13.4766 0.640625 11.3116C0.640625 9.14668 1.0668 7.26299 1.91914 5.66058C2.78854 4.05818 4.00739 2.82228 5.57571 1.95289C7.16107 1.06645 9.00214 0.62323 11.0989 0.62323C12.7695 0.62323 14.2526 0.904503 15.5482 1.46705C16.8437 2.0296 17.9092 2.84785 18.7445 3.9218C19.5798 4.97871 20.1167 6.2487 20.3554 7.73178H16.3408C16.1192 6.55555 15.5482 5.65206 14.6276 5.02133C13.7071 4.37355 12.5309 4.04966 11.0989 4.04966C9.05328 4.04966 7.44235 4.69744 6.26611 5.993C5.08987 7.27152 4.50175 9.04439 4.50175 11.3116C4.50175 13.5789 5.08987 15.3603 6.26611 16.6558C7.44235 17.9343 9.05328 18.5736 11.0989 18.5736C12.5309 18.5736 13.7071 18.2582 14.6276 17.6275C15.5482 16.9797 16.1192 16.0677 16.3408 14.8915H20.3554C20.1167 16.3746 19.5798 17.6531 18.7445 18.727C17.9092 19.7839 16.8437 20.5937 15.5482 21.1562C14.2526 21.7188 12.7695 22 11.0989 22Z" fill="white" data-frz-id="ut4ev4rwfs" style="mix-blend-mode: difference;"></path><path d="M22.8753 21.642V10.1098H20.9831V6.29984H24.8698V9.266H25.9437C26.3699 8.24319 27.0262 7.46756 27.9126 6.9391C28.7991 6.41065 29.8134 6.14642 30.9555 6.14642H32.234V9.41943H30.7765C29.3787 9.41943 28.3388 9.82003 27.6569 10.6212C26.9751 11.4224 26.6341 12.4879 26.6341 13.8175V21.642H22.8753Z" fill="white" data-frz-id="mo8s57dm71" style="mix-blend-mode: difference;"></path><path d="M38.0513 21.9233C36.2614 21.9233 34.855 21.4886 33.8322 20.6192C32.8264 19.7498 32.3235 18.5992 32.3235 17.1672C32.3235 15.6671 32.8349 14.5079 33.8577 13.6897C34.8976 12.8714 36.3892 12.4623 38.3326 12.4623H43.0119V11.8486C43.0119 9.97345 41.9209 9.03587 39.7389 9.03587C37.8808 9.03587 36.7643 9.7007 36.3892 11.0304H32.5792C32.9031 9.39386 33.6788 8.14943 34.9061 7.29709C36.1335 6.4277 37.7444 5.993 39.7389 5.993C41.9891 5.993 43.7024 6.50441 44.8786 7.52722C46.0548 8.53299 46.6429 10.0075 46.6429 11.9509V17.8321H48.4584V21.642H44.5462V19.1873H43.4722C42.9438 20.0567 42.2278 20.73 41.3243 21.2074C40.4379 21.6847 39.3469 21.9233 38.0513 21.9233ZM38.6138 18.9827C39.4491 18.9827 40.1992 18.8293 40.864 18.5225C41.5289 18.1986 42.0488 17.7724 42.4238 17.2439C42.8159 16.6985 43.0119 16.0933 43.0119 15.4285V15.0705H38.5371C36.8154 15.0705 35.9545 15.7097 35.9545 16.9882C35.9545 17.619 36.1847 18.1133 36.6449 18.4713C37.1222 18.8123 37.7785 18.9827 38.6138 18.9827Z" fill="white" data-frz-id="hlovw1fy7v" style="mix-blend-mode: difference;"></path><path d="M51.7259 21.642V9.266H48.862V6.29984H51.7514V3.30811C51.7514 2.23416 52.0327 1.44148 52.5952 0.930073C53.1748 0.418667 53.976 0.162964 54.9989 0.162964H59.3458V3.12912H55.4847V6.29984H59.039V9.266H55.5358V21.642H51.7259Z" fill="white" data-frz-id="k8h5p7wlrgc" style="mix-blend-mode: difference;"></path><path d="M64.9098 21.642C63.904 21.642 63.1199 21.3863 62.5573 20.8749C62.0118 20.3635 61.7391 19.5879 61.7391 18.548V9.266H59.0286V6.29984H61.7646V1.69718H65.4979V6.29984H69.2056V9.266H65.549V18.6503H69.5636V21.642H64.9098Z" fill="white" data-frz-id="ple9a8q4n7" style="mix-blend-mode: difference;"></path><path d="M78.2707 21.9489C76.6342 21.9489 75.2023 21.625 73.9749 20.9772C72.7645 20.3124 71.827 19.3833 71.1621 18.1901C70.5144 16.9797 70.1905 15.5563 70.1905 13.9198C70.1905 12.2833 70.5144 10.8769 71.1621 9.7007C71.8099 8.50742 72.7305 7.59541 73.9237 6.96467C75.117 6.31689 76.5149 5.993 78.1173 5.993C79.6856 5.993 81.0323 6.29984 82.1574 6.91353C83.2825 7.51017 84.1519 8.37957 84.7656 9.52171C85.3793 10.6468 85.6861 11.985 85.6861 13.5363V14.8659H73.847C74.0004 16.1615 74.4522 17.1587 75.2023 17.8576C75.9694 18.5395 76.9837 18.8805 78.2451 18.8805C79.1827 18.8805 79.9413 18.71 80.5209 18.369C81.1175 18.0111 81.5352 17.4826 81.7738 16.7837H85.6094C85.2514 18.4031 84.4246 19.6731 83.1291 20.5937C81.8506 21.4971 80.2311 21.9489 78.2707 21.9489ZM73.9493 12.2833H82.0295C81.8932 11.2264 81.484 10.4252 80.8022 9.87969C80.1373 9.31714 79.2424 9.03587 78.1173 9.03587C77.0092 9.03587 76.0972 9.31714 75.3812 9.87969C74.6653 10.4422 74.188 11.2434 73.9493 12.2833Z" fill="white" data-frz-id="io37k58ctr" style="mix-blend-mode: difference;"></path><path d="M93.9885 21.9489C92.4202 21.9489 91.0905 21.625 89.9995 20.9772C88.9085 20.3124 88.0732 19.3833 87.4936 18.1901C86.9311 16.9797 86.6498 15.5734 86.6498 13.9709C86.6498 12.3515 86.9225 10.9451 87.468 9.75184C88.0306 8.55856 88.8318 7.63803 89.8717 6.99024C90.9286 6.32542 92.19 5.993 93.6561 5.993C94.8153 5.993 95.8125 6.21461 96.6478 6.65783C97.4831 7.084 98.1224 7.70621 98.5656 8.52446H98.6679V0.162964H102.478V17.8321H104.37V21.642H100.483V19.1873H99.4094C98.8639 20.0737 98.1394 20.7556 97.2359 21.2329C96.3325 21.7102 95.25 21.9489 93.9885 21.9489ZM94.6533 18.6503C95.8807 18.6503 96.8524 18.3094 97.5683 17.6275C98.3014 16.9286 98.6679 15.991 98.6679 14.8148V13.1271C98.6679 11.9509 98.3014 11.0218 97.5683 10.34C96.8524 9.64104 95.8807 9.29157 94.6533 9.29157C93.2896 9.29157 92.2497 9.70922 91.5337 10.5445C90.8178 11.3628 90.4598 12.5049 90.4598 13.9709C90.4598 15.437 90.8178 16.5876 91.5337 17.4229C92.2497 18.2412 93.2896 18.6503 94.6533 18.6503Z" fill="white" data-frz-id="9swyrd9sbo4" style="mix-blend-mode: difference;"></path>
  </symbol>
</svg>